<svg height="512pt" viewBox="0 0 512.00004 512" width="512pt" xmlns="http://www.w3.org/2000/svg">
<path fill="#e84545e6" d="m293.101562 0h-236.488281c-31.21875 0-56.613281 25.394531-56.613281 56.613281v398.773438c0 31.21875 25.394531 56.613281 56.613281 56.613281h236.488281c31.214844 0 56.609376-25.394531 56.609376-56.613281v-398.773438c0-31.21875-25.394532-56.613281-56.609376-56.613281zm-167.972656 30h99.457032v11.496094c0 2.308594-1.867188 4.183594-4.164063 4.183594h-91.128906c-2.296875 0-4.164063-1.875-4.164063-4.183594zm194.582032 425.386719c0 14.675781-11.9375 26.613281-26.609376 26.613281h-236.488281c-14.675781 0-26.613281-11.9375-26.613281-26.613281v-398.773438c0-14.675781 11.9375-26.613281 26.613281-26.613281h38.515625v11.496094c0 18.847656 15.324219 34.183594 34.164063 34.183594h91.125c18.839843 0 34.167969-15.335938 34.167969-34.183594v-11.496094h38.515624c14.671876 0 26.609376 11.9375 26.609376 26.613281zm0 0"/><path fill="#e84545e6" d="m214.820312 432.5h-79.929687c-8.28125 0-15 6.714844-15 15 0 8.28125 6.71875 15 15 15h79.929687c8.285157 0 15-6.71875 15-15 0-8.285156-6.714843-15-15-15zm0 0"/><path fill="#e84545e6" d="m486.925781 317.304688.335938-167.460938 21.433593-27.996094c3.234376-4.230468 4.164063-9.773437 2.484376-14.828125l-31.921876-96.015625c-2.183593-6.582031-8.3125-11.003906-15.25-11.003906l-30.824218.0078125c-6.921875 0-13.042969 4.4101565-15.242188 10.9804685l-32.078125 96.039063c-1.691406 5.058594-.765625 10.609375 2.480469 14.855468l21.394531 27.949219-.289062 167.605469c-13.785157 3.183594-24.109375 15.578125-24.113281 30.3125l-.027344 100.332031c-.011719 34.851563 27.988281 63.519531 62.410156 63.914063.25 0 .496094.003906.746094.003906 16.746094 0 32.488281-6.460938 44.40625-18.238281 12.105468-11.96875 18.777344-27.945313 18.78125-44.988281l.03125-101.003907c0-8.308593-3.230469-16.121093-9.101563-21.996093-4.347656-4.351563-9.761719-7.257813-15.65625-8.46875zm-43.707031-287.300782h10.742188l26.421874 79.476563-19.804687 25.859375c-2.125 2.78125-3.300781 6.238281-3.308594 9.738281l-.339843 171.542969h-17.476563l.292969-171.5c0-3.507813-1.175782-6.976563-3.308594-9.769532l-19.777344-25.832031zm38.433594 418.765625c0 8.964844-3.503906 17.367188-9.867188 23.65625-6.347656 6.273438-14.769531 9.648438-23.722656 9.570313-18.0625-.203125-32.757812-15.414063-32.753906-33.90625l.03125-100.332032c0-.613281.492187-1.113281 1.097656-1.113281l64.164062.019531c.109376 0 .445313 0 .761719.316407.320313.320312.320313.667969.320313.78125zm0 0"/><path fill="#e84545e6" d="m174.855469 134.191406c-67.113281 0-121.710938 54.644532-121.710938 121.808594s54.597657 121.808594 121.710938 121.808594 121.710937-54.644532 121.710937-121.808594-54.597656-121.808594-121.710937-121.808594zm0 213.617188c-50.570313 0-91.710938-41.1875-91.710938-91.808594s41.140625-91.808594 91.710938-91.808594c50.570312 0 91.710937 41.1875 91.710937 91.808594s-41.140625 91.808594-91.710937 91.808594zm0 0"/><path fill="#e84545e6" d="m205.675781 214.734375-55.820312 55.867187-15.824219-15.824218c-5.859375-5.859375-15.355469-5.859375-21.214844 0-5.855468 5.855468-5.855468 15.355468 0 21.210937l19.382813 19.382813c4.71875 4.71875 10.988281 7.316406 17.660156 7.316406h.003906c6.671875 0 12.945313-2.601562 17.660157-7.320312l59.375-59.429688c5.855468-5.859375 5.851562-15.359375-.007813-21.210938-5.863281-5.859374-15.359375-5.851562-21.214844.007813zm0 0"/></svg>